<svg width="80" height="80" viewBox="0 0 80 80" fill="none" xmlns="http://www.w3.org/2000/svg">
<path d="M60 28.3333H56.6667V21.6667C56.6667 12.4667 49.2 5 40 5C30.8 5 23.3334 12.4667 23.3334 21.6667V28.3333H20C16.3334 28.3333 13.3334 31.3333 13.3334 35V68.3333C13.3334 72 16.3334 75 20 75H60C63.6667 75 66.6667 72 66.6667 68.3333V35C66.6667 31.3333 63.6667 28.3333 60 28.3333ZM30 21.6667C30 16.1333 34.4667 11.6667 40 11.6667C45.5334 11.6667 50 16.1333 50 21.6667V28.3333H30V21.6667ZM60 68.3333H20V35H60V68.3333ZM40 58.3333C43.6667 58.3333 46.6667 55.3333 46.6667 51.6667C46.6667 48 43.6667 45 40 45C36.3334 45 33.3334 48 33.3334 51.6667C33.3334 55.3333 36.3334 58.3333 40 58.3333Z" fill="white"/>
</svg>
