<svg width="397" height="50" viewBox="0 0 397 50" fill="none" xmlns="http://www.w3.org/2000/svg">
<path d="M0.841797 30.709H4.73828V8.38477H0.841797V0.123047H21.584V8.38477H17.6875V30.709H21.584V39H0.841797V30.709ZM36.0859 10.6113H49.5625V39H36.0859V10.6113ZM25.9492 0.123047H59.6992V8.58984H25.9492V0.123047ZM77.5996 23.0332V39H64.6504V0.123047H77.5996V15.5332H89.9922V23.0332H77.5996ZM79.6504 7.65234V0.123047H99.8945V11.373H87.707V7.65234H79.6504ZM79.6504 39V31.2363H86.9453V27.3398H99.8945V39H79.6504ZM123.098 49.8398H110.676L126.438 7.88672H138.889L123.098 49.8398ZM102.297 7.88672H115.217L119.582 20.543L113.781 36.3926L102.297 7.88672ZM154.24 39H149.055L141.291 31.2363V15.6504L149.055 7.88672H154.24V39ZM156.291 26.5195V21.0996H163.117V15.6504H156.291V7.88672H167.277L175.041 15.6504V26.5195H156.291ZM156.291 39V31.7344H173.693V35.1035L169.826 39H156.291ZM187.346 7.88672H192.531V18.873H207.297L214.035 25.6699V31.7344L206.799 39H201.086V27.252H187.082L180.344 20.7773V14.8594L187.346 7.88672ZM193.293 33.2871H199.035V39L185.705 38.9707L180.314 32.584V30.0938H193.293V33.2871ZM201.086 13.5996H194.582V7.88672H208.352L212.98 12.5156V16.0312H201.086V13.5996ZM237.062 17.3203H262.932V24.3223H237.062V17.3203ZM299.577 12.196C298.497 12.2102 297.503 12.4446 296.594 12.8991C295.685 13.3537 294.953 13.9716 294.399 14.7528C293.859 15.5199 293.589 16.4148 293.589 17.4375H286.494C286.494 15.7898 286.835 14.2557 287.517 12.8352C288.199 11.4148 289.136 10.179 290.33 9.12784C291.537 8.0767 292.929 7.25994 294.506 6.67756C296.097 6.08097 297.787 5.78267 299.577 5.78267C302.759 5.78267 305.443 6.52131 307.631 7.99858C309.832 9.47585 311.494 11.4645 312.616 13.9645C313.753 16.4503 314.321 19.206 314.321 22.2315V23.1477C314.321 26.1733 313.76 28.9361 312.638 31.4361C311.516 33.9219 309.854 35.9034 307.652 37.3807C305.464 38.858 302.773 39.5966 299.577 39.5966C297.02 39.5966 294.754 39.0781 292.78 38.0412C290.82 36.9901 289.278 35.527 288.156 33.652C287.048 31.777 286.494 29.5895 286.494 27.0895H293.589C293.589 28.169 293.845 29.1705 294.357 30.0938C294.868 31.0028 295.571 31.7344 296.466 32.2884C297.375 32.8423 298.412 33.1264 299.577 33.1406C301.324 33.1264 302.73 32.608 303.795 31.5852C304.875 30.5625 305.656 29.2841 306.139 27.75C306.636 26.2159 306.885 24.6818 306.885 23.1477V22.2315C306.885 20.5838 306.636 19 306.139 17.4801C305.656 15.946 304.875 14.6889 303.795 13.7088C302.73 12.7145 301.324 12.2102 299.577 12.196ZM309.293 20.0369V25.1506H296.828V20.0369H309.293ZM317.224 12.6009V6.27273H345.86V12.6009H335.271V39H327.814V12.6009H317.224ZM364.93 39.6392C361.734 39.6392 358.964 38.9361 356.62 37.5298C354.277 36.1236 352.458 34.1562 351.166 31.6278C349.887 29.0994 349.248 26.1449 349.248 22.7642C349.248 19.3835 349.887 16.4219 351.166 13.8793C352.458 11.3366 354.277 9.36222 356.62 7.95597C358.964 6.54972 361.734 5.84659 364.93 5.84659C368.126 5.84659 370.896 6.54972 373.24 7.95597C375.583 9.36222 377.395 11.3366 378.673 13.8793C379.966 16.4219 380.612 19.3835 380.612 22.7642C380.612 26.1449 379.966 29.0994 378.673 31.6278C377.395 34.1562 375.583 36.1236 373.24 37.5298C370.896 38.9361 368.126 39.6392 364.93 39.6392ZM364.973 33.4602C366.706 33.4602 368.154 32.9844 369.319 32.0327C370.484 31.0668 371.35 29.7741 371.919 28.1548C372.501 26.5355 372.792 24.7315 372.792 22.7429C372.792 20.7401 372.501 18.929 371.919 17.3097C371.35 15.6761 370.484 14.3764 369.319 13.4105C368.154 12.4446 366.706 11.9616 364.973 11.9616C363.197 11.9616 361.72 12.4446 360.541 13.4105C359.376 14.3764 358.502 15.6761 357.92 17.3097C357.352 18.929 357.068 20.7401 357.068 22.7429C357.068 24.7315 357.352 26.5355 357.92 28.1548C358.502 29.7741 359.376 31.0668 360.541 32.0327C361.72 32.9844 363.197 33.4602 364.973 33.4602ZM391.91 39.4688C390.617 39.4688 389.509 39.0142 388.586 38.1051C387.663 37.196 387.208 36.0881 387.222 34.7812C387.208 33.5028 387.663 32.4091 388.586 31.5C389.509 30.5909 390.617 30.1364 391.91 30.1364C393.16 30.1364 394.246 30.5909 395.17 31.5C396.107 32.4091 396.583 33.5028 396.597 34.7812C396.583 35.6477 396.356 36.4361 395.915 37.1463C395.489 37.8565 394.921 38.4247 394.211 38.8509C393.515 39.2628 392.748 39.4688 391.91 39.4688ZM391.91 16.1165C390.617 16.1165 389.509 15.6619 388.586 14.7528C387.663 13.8295 387.208 12.7216 387.222 11.429C387.208 10.1506 387.663 9.05682 388.586 8.14773C389.509 7.22443 390.617 6.76278 391.91 6.76278C393.16 6.76278 394.246 7.22443 395.17 8.14773C396.107 9.05682 396.583 10.1506 396.597 11.429C396.583 12.2812 396.356 13.0625 395.915 13.7727C395.489 14.483 394.921 15.0511 394.211 15.4773C393.515 15.9034 392.748 16.1165 391.91 16.1165Z" fill="black"/>
</svg>
