<svg width="143" height="34" viewBox="0 0 143 34" fill="none" xmlns="http://www.w3.org/2000/svg">
<path d="M0.671875 20.4727H3.26953V5.58984H0.671875V0.0820312H14.5V5.58984H11.9023V20.4727H14.5V26H0.671875V20.4727ZM24.168 7.07422H33.1523V26H24.168V7.07422ZM17.4102 0.0820312H39.9102V5.72656H17.4102V0.0820312ZM51.8438 15.3555V26H43.2109V0.0820312H51.8438V10.3555H60.1055V15.3555H51.8438ZM53.2109 5.10156V0.0820312H66.707V7.58203H58.582V5.10156H53.2109ZM53.2109 26V20.8242H58.0742V18.2266H66.707V26H53.2109ZM82.1758 33.2266H73.8945L84.4023 5.25781H92.7031L82.1758 33.2266ZM68.3086 5.25781H76.9219L79.832 13.6953L75.9648 24.2617L68.3086 5.25781ZM102.938 26H99.4805L94.3047 20.8242V10.4336L99.4805 5.25781H102.938V26ZM104.305 17.6797V14.0664H108.855V10.4336H104.305V5.25781H111.629L116.805 10.4336V17.6797H104.305ZM104.305 26V21.1562H115.906V23.4023L113.328 26H104.305ZM125.008 5.25781H128.465V12.582H138.309L142.801 17.1133V21.1562L137.977 26H134.168V18.168H124.832L120.34 13.8516V9.90625L125.008 5.25781ZM128.973 22.1914H132.801V26L123.914 25.9805L120.32 21.7227V20.0625H128.973V22.1914ZM134.168 9.06641H129.832V5.25781H139.012L142.098 8.34375V10.6875H134.168V9.06641Z" fill="white"/>
</svg>
