<svg width="34" height="34" viewBox="0 0 34 34" fill="none" xmlns="http://www.w3.org/2000/svg">
<path d="M17.1 33.789C16.2513 33.789 15.6037 33.5657 15.157 33.119C14.755 32.6277 14.554 31.98 14.554 31.176V19.25H2.829C2.025 19.25 1.39967 19.049 0.953 18.647C0.506334 18.2003 0.283 17.575 0.283 16.771C0.283 15.967 0.506334 15.364 0.953 14.962C1.39967 14.5153 2.025 14.292 2.829 14.292H14.554V2.701C14.554 1.897 14.755 1.27166 15.157 0.824998C15.6037 0.378331 16.2737 0.154998 17.167 0.154998C17.971 0.154998 18.574 0.378331 18.976 0.824998C19.4227 1.27166 19.646 1.897 19.646 2.701V14.292H31.371C32.2197 14.292 32.845 14.5153 33.247 14.962C33.6937 15.364 33.917 15.967 33.917 16.771C33.917 17.575 33.6937 18.2003 33.247 18.647C32.845 19.049 32.2197 19.25 31.371 19.25H19.646V31.176C19.646 31.98 19.4227 32.6277 18.976 33.119C18.574 33.5657 17.9487 33.789 17.1 33.789Z" fill="#08BDBD"/>
</svg>
