<svg width="24" height="24" viewBox="0 0 24 24" fill="none" xmlns="http://www.w3.org/2000/svg">
<path fill-rule="evenodd" clip-rule="evenodd" d="M9.61485 15.4458C12.2651 17.5685 16.1446 17.4014 18.6013 14.9446C21.2374 12.3086 21.2374 8.0347 18.6013 5.39866C15.9653 2.76262 11.6914 2.76262 9.0554 5.39866C6.59862 7.85544 6.43155 11.7349 8.55419 14.3851L3.39856 19.5408C3.10567 19.8337 3.10567 20.3085 3.39856 20.6014C3.69145 20.8943 4.16633 20.8943 4.45922 20.6014L9.61485 15.4458ZM17.5407 13.8839C19.5909 11.8337 19.5909 8.50957 17.5407 6.45932C15.4904 4.40907 12.1663 4.40907 10.1161 6.45932C8.06731 8.50807 8.06581 11.8288 10.1115 13.8794C10.1131 13.8809 10.1146 13.8824 10.1161 13.8839C10.1176 13.8854 10.1191 13.8869 10.1206 13.8884C12.1712 15.9342 15.4919 15.9327 17.5407 13.8839Z" fill="#3B1034"/>
</svg>
